<?xml version="1.0" encoding="iso-8859-1"?>
<!-- Generator: Adobe Illustrator 16.0.0, SVG Export Plug-In . SVG Version: 6.00 Build 0)  -->
<!DOCTYPE svg PUBLIC "-//W3C//DTD SVG 1.1//EN" "http://www.w3.org/Graphics/SVG/1.1/DTD/svg11.dtd">
<svg version="1.1" id="Capa_1" xmlns="http://www.w3.org/2000/svg" xmlns:xlink="http://www.w3.org/1999/xlink" x="0px" y="0px"
	 width="317.176px" height="317.176px" viewBox="0 0 317.176 317.176" style="enable-background:new 0 0 317.176 317.176;"
	 xml:space="preserve">
<g>
	<g>
		<path d="M20.889,207.151c0,0,19.503,56.561,77.384,76.444s60.315,33.58,60.315,33.58s2.431-13.696,60.312-33.58
			c57.892-19.884,77.387-76.444,77.387-76.444s-41.15-18.559-41.15-68.046s38.991-76.885,38.991-76.885l-65.285-28.172
			l10.278-14.581C210.864,1.113,170.061,0,160.595,0c-1.305,0.005-2.006,0.029-2.006,0.029s-0.71-0.023-2.01-0.023
			c-9.455,0-50.261,1.108-78.523,19.467l10.276,14.582L23.048,62.221c0,0,38.994,27.397,38.994,76.885
			S20.889,207.151,20.889,207.151z M77.949,139.105c0-32.451-14.178-56.636-26.76-71.707l43.447-18.742l17.981-7.757L101.64,25.321
			c22.864-8.867,48.985-9.409,54.944-9.403c0.917,0,1.458,0.01,1.538,0.018l0.467,0.005l0.452-0.013
			c0.104-0.005,0.643-0.016,1.554-0.016c5.955,0,32.084,0.542,54.95,9.404l-10.978,15.575l17.979,7.76l43.444,18.742
			c-12.583,15.071-26.761,39.25-26.761,71.707c0,39.701,21.873,62.899,36.858,74.125c-8.285,15.623-27.3,43.284-62.35,55.323
			c-24.881,8.544-43.3,17.16-55.145,25.767c-11.845-8.606-30.267-17.223-55.145-25.767c-34.753-11.94-53.91-39.716-62.293-55.364
			C56.129,201.941,77.949,178.749,77.949,139.105z"/>
		<path d="M110.427,255.359c34.02,11.045,48.162,24.301,48.162,24.301s14.144-13.256,48.164-24.301
			c34.02-11.045,48.156-40.208,48.156-40.208s-30.488-6.628-30.488-68.046s21.323-75.008,21.323-75.008l-58.658-25.849l9.942-14.916
			c-21.536-6.957-38.439-5.631-38.439-5.631s-16.904-1.326-38.443,5.631l9.942,14.91l-58.655,25.85c0,0,21.321,13.585,21.321,75.008
			s-30.489,68.046-30.489,68.046S76.401,244.314,110.427,255.359z"/>
	</g>
</g>
<g>
</g>
<g>
</g>
<g>
</g>
<g>
</g>
<g>
</g>
<g>
</g>
<g>
</g>
<g>
</g>
<g>
</g>
<g>
</g>
<g>
</g>
<g>
</g>
<g>
</g>
<g>
</g>
<g>
</g>
</svg>
